<svg width="398" height="398" viewBox="0 0 398 398" fill="none" xmlns="http://www.w3.org/2000/svg">
<path fill-rule="evenodd" clip-rule="evenodd" d="M125.755 14.3295C132.767 11.5592 139.974 9.17483 147.35 7.20272C199.872 26.8442 235.117 69.7832 232.261 110.137L225.332 106.025C193.824 87.2453 157.172 78.9385 120.646 82.2985C95.3311 84.5881 69.8888 80.9008 46.3485 71.6041C64.1498 50.3944 86.3104 32.9501 111.455 20.6424C111.58 20.9114 111.725 21.1711 111.889 21.4191C112.312 22.0567 112.856 22.6046 113.491 23.0315C114.126 23.4585 114.839 23.7561 115.589 23.9075C123.756 25.5619 131.732 28.0542 139.388 31.3448C140.093 31.6581 140.852 31.8284 141.623 31.8459C142.394 31.8634 143.161 31.7277 143.878 31.4467C144.596 31.1656 145.251 30.7449 145.806 30.2088C146.36 29.6728 146.802 29.032 147.107 28.3238C147.411 27.6155 147.572 26.8538 147.58 26.0829C147.588 25.3119 147.443 24.5471 147.153 23.8326C146.864 23.1181 146.435 22.4683 145.892 21.9208C145.349 21.3732 144.703 20.9389 143.991 20.643C138.071 18.0975 131.975 15.9879 125.755 14.3295ZM32.1029 90.8069C34.253 87.5121 36.4984 84.285 38.8353 81.1293C64.9147 92.0332 93.3512 96.4625 121.691 93.9023C155.779 90.7664 189.984 98.518 219.39 116.043L230.162 122.435C229.936 123.25 229.7 124.071 229.442 124.89C228.56 127.651 227.489 130.348 226.236 132.962L218.258 128.226C186.721 109.514 150.091 101.211 113.568 104.496C85.5362 107.044 57.4862 102.252 32.1029 90.8069ZM14.6858 123.982C17.9566 115.989 21.7345 108.257 25.9798 100.826C53.4845 113.505 84.0292 118.881 114.613 116.102C148.696 113.037 182.879 120.785 212.309 138.246L220.261 142.963C209.284 158.07 191.345 169.315 169.081 174.911C143.715 181.289 114.327 179.884 86.3396 170.953C60.6147 162.751 38.0947 149.072 21.2144 131.395C18.907 128.979 16.729 126.504 14.6858 123.982ZM10.0538 136.494C10.9457 137.483 11.8575 138.465 12.7892 139.441C31.0129 158.525 55.2225 173.259 82.8002 182.052C145.111 201.931 208.484 185.951 233.485 144.061C237.787 136.869 240.846 129.004 242.532 120.795C247.622 96.0954 240.096 69.3842 221.342 45.5842C207.678 28.2421 188.9 13.5841 167.082 2.99049C177.474 1.31922 188.135 0.450684 199 0.450684C308.905 0.450684 398 89.3292 398 198.966C398 203.93 397.817 208.851 397.459 213.722C396.522 188.816 388.286 166.372 372.691 150.319C366.857 144.302 360.051 139.312 352.559 135.558C330.019 124.249 302.269 124.606 274.426 136.561C246.992 148.339 221.878 170.421 203.71 198.734C198.338 207.097 193.667 215.889 189.742 225.02C173.822 213.314 155.955 206.574 137.643 206.344C131.909 206.272 126.185 206.859 120.585 208.091C118.012 208.657 115.472 209.362 112.976 210.203C89.0602 218.193 69.7317 238.105 58.5521 266.272C51.0349 285.201 47.6793 306.753 48.6062 328.972C18.3254 294.143 0 248.689 0 198.966C0 177.141 3.53086 156.137 10.0538 136.494ZM311.108 362.299C312.932 361.301 314.74 360.26 316.53 359.178C295.835 374.312 272.099 385.551 246.407 391.815C247.569 386.825 248.472 381.775 249.111 376.686C251.92 376.961 254.754 377.114 257.615 377.114C274.969 377.114 293.199 372.096 311.108 362.299ZM234.744 320.137C240.341 345.544 239.95 371.692 233.716 394.472C223.752 396.221 213.531 397.23 203.114 397.441C199.047 370.906 188.864 345.454 173.104 323.202C153.62 295.742 143.18 262.892 143.234 229.223C143.234 228.679 143.234 228.143 143.241 227.584H143.245L143.336 218.336C161.911 220.254 180.638 230.132 196.649 246.579C214.894 265.322 228.422 291.446 234.744 320.137ZM163.594 329.931C177.935 350.178 187.324 373.257 191.306 397.337C187.292 397.184 183.309 396.914 179.359 396.528C174.751 372.057 164.905 348.734 150.349 328.219C130.532 300.306 120.077 266.828 120.486 232.598H120.489L120.608 220.074C121.43 219.855 122.256 219.652 123.088 219.47C125.921 218.847 128.794 218.42 131.686 218.192L131.595 227.455C131.587 228.048 131.587 228.632 131.587 229.225C131.528 265.304 142.716 300.505 163.594 329.931ZM140.836 334.945C153.677 353.044 162.59 373.483 167.16 394.955C126.471 388.428 89.9071 369.594 61.4267 342.404C54.8179 289.823 74.1316 241.447 108.912 224.429L108.835 232.485C108.398 269.163 119.601 305.036 140.836 334.945ZM368.207 162.808C379.959 177.321 386.178 197.56 385.821 220.513C385.416 246.666 376.452 274.689 360.583 299.411C346.002 322.136 326.96 340.348 305.517 352.079C287.252 362.07 268.099 366.617 250.904 365.153C284.775 338.553 307.582 300.341 314.918 257.904C320.779 224.189 337.11 193.177 361.593 169.268L368.207 162.808ZM341.979 156.682L350.942 147.932C351.67 148.361 352.402 148.802 353.126 149.262C355.565 150.829 357.893 152.562 360.093 154.448L353.454 160.929C327.217 186.548 309.717 219.781 303.437 255.91C297.094 292.604 278.336 326.004 250.303 350.516C250.146 345.803 249.792 341.06 249.242 336.285C273.327 311.238 289.37 279.559 295.307 245.322C301.1 211.584 317.441 180.551 341.979 156.682ZM213.513 205.026C245.74 154.802 299.478 128.866 339.606 142.721L333.841 148.349C307.546 173.924 290.036 207.176 283.828 243.328C278.816 272.245 266.064 299.264 246.926 321.514C246.669 320.22 246.404 318.924 246.118 317.629C238.396 282.581 221.173 252.676 199.142 232.718C203.065 223.062 207.876 213.792 213.513 205.026ZM252.042 198.391C250.965 199.395 249.548 199.953 248.076 199.951H248.073C246.902 199.951 245.759 199.599 244.792 198.94C243.825 198.281 243.078 197.347 242.65 196.258C242.222 195.169 242.132 193.976 242.391 192.835C242.65 191.693 243.247 190.657 244.104 189.86C246.787 187.367 249.603 184.956 252.478 182.699C253.079 182.226 253.768 181.877 254.505 181.67C255.241 181.464 256.011 181.404 256.771 181.495C257.531 181.586 258.265 181.826 258.932 182.201C259.599 182.576 260.185 183.078 260.658 183.68C261.131 184.281 261.48 184.97 261.687 185.706C261.893 186.443 261.953 187.213 261.862 187.973C261.771 188.732 261.531 189.466 261.156 190.133C260.781 190.8 260.279 191.387 259.677 191.859C257.055 193.92 254.486 196.118 252.042 198.391ZM218.309 235.722C218.993 236.063 219.739 236.265 220.502 236.318C221.265 236.371 222.031 236.273 222.757 236.03C223.482 235.786 224.152 235.402 224.729 234.899C225.305 234.397 225.777 233.785 226.118 233.1C229.83 225.639 234.301 218.58 239.461 212.036C239.946 211.437 240.307 210.747 240.524 210.007C240.74 209.267 240.807 208.492 240.722 207.726C240.636 206.959 240.399 206.218 240.025 205.544C239.651 204.87 239.146 204.277 238.541 203.799C237.936 203.322 237.242 202.969 236.499 202.762C235.756 202.554 234.98 202.497 234.215 202.591C233.45 202.686 232.711 202.932 232.042 203.315C231.372 203.698 230.786 204.209 230.315 204.82C224.657 211.994 219.755 219.733 215.686 227.913C214.998 229.297 214.889 230.896 215.381 232.361C215.872 233.825 216.926 235.034 218.309 235.722ZM153.291 36.5376C153.671 37.9599 154.576 39.1851 155.825 39.9651C158.653 41.7372 161.441 43.6499 164.11 45.65C164.722 46.1086 165.419 46.4422 166.16 46.6316C166.901 46.821 167.673 46.8626 168.43 46.7539C169.187 46.6453 169.915 46.3885 170.573 45.9984C171.232 45.6082 171.806 45.0922 172.265 44.4799C172.724 43.8677 173.057 43.171 173.246 42.4298C173.436 41.6886 173.477 40.9174 173.369 40.1602C173.26 39.4029 173.003 38.6745 172.613 38.0164C172.223 37.3584 171.707 36.7837 171.095 36.325C168.17 34.1324 165.113 32.0358 162.011 30.0898C161.019 29.4683 159.863 29.16 158.694 29.2048C157.525 29.2497 156.396 29.6457 155.455 30.3412C154.514 31.0368 153.804 31.9997 153.418 33.1044C153.032 34.2091 152.988 35.4045 153.291 36.5348L153.291 36.5376Z" fill="#A1DBC3"/>
</svg>
