<svg width="31" height="29" viewBox="0 0 31 29" fill="none" xmlns="http://www.w3.org/2000/svg">
<g clip-path="url(#clip0_4_135)">
<path d="M25.8919 8.56824H5.10787C4.52414 8.56824 4.05103 9.01083 4.05103 9.5569V26.0342C4.05103 27.6697 5.47351 29.0001 7.2215 29.0001H23.7783C25.5267 29.0001 26.9488 27.6697 26.9488 26.0342V9.55684C26.9488 9.01083 26.4757 8.56824 25.8919 8.56824ZM24.8351 26.0341C24.8351 26.5792 24.361 27.0228 23.7783 27.0228H7.2215C6.63886 27.0228 6.16466 26.5792 6.16466 26.0341V10.5455H24.8351V26.0341Z" fill="#574747"/>
<path d="M15.6761 0C12.1798 0 9.33521 2.66109 9.33521 5.9318V14.1705C9.33521 14.7165 9.80832 15.1591 10.392 15.1591C10.9758 15.1591 11.4489 14.7165 11.4489 14.1705V5.9318C11.4489 3.7512 13.3452 1.97727 15.6762 1.97727C18.0072 1.97727 19.9034 3.7512 19.9034 5.9318V14.1705C19.9034 14.7165 20.3765 15.1591 20.9603 15.1591C21.544 15.1591 22.0171 14.7165 22.0171 14.1705V5.9318C22.017 2.66109 19.1724 0 15.6761 0Z" fill="#574747"/>
</g>
<circle cx="24.5" cy="11.5" r="5" fill="#EFECE5" stroke="#378B68" stroke-width="3"/>
<defs>
<clipPath id="clip0_4_135">
<rect width="31" height="29" fill="white"/>
</clipPath>
</defs>
</svg>
